PathFileType	4	(x/y/z)	S02_M20_T11
DataRate	CameraRate	NumFrames	NumMarkers	Units	OrigDataRate	OrigDataStartFrame	OrigNumFrames
240	240	9	51	mm	240	1	466
Frame#	Time	Sternum			R.Acromium			L.Acromium			Top.Head			R.ASIS			L.ASIS			R.PSIS			L.PSIS			R.Great.Tro			L.Great.Tro			R.Iliac.Crest			L.Iliac.Crest			V.Sacral			R.Thigh.Upper.Post			R.Thigh.Lower.Ant			R.Thigh.Lower.Post			R.Thigh.Upper.Ant			R.Knee.Lat			R.Knee.Med			R.Shank.Upper.Post			R.Shank.Lower.Ant			R.Shank.Lower.Post			R.Shank.Upper.Ant			R.Ankle.Lat			R.Ankle.Med			R.Heel.Upper			R.Heel.Med			R.Heel.Lat			R.Toe.Lat			R.Toe.Med			R.Toe.Tip			L.Thigh.Upper.Post			L.Thigh.Lower.Ant			L.Thigh.Lower.Post			L.Thigh.Upper.Ant			L.Knee.Lat			L.Knee.Med			L.Shank.Upper.Post			L.Shank.Lower.Ant			L.Shank.Lower.Post			L.Shank.Upper.Ant			L.Ankle.Lat			L.Ankle.Med			L.Heel.Upper			L.Heel.Med			L.Heel.Lat			L.Toe.Lat			L.Toe.Med			L.Toe.Tip			Cervical.Spine			Back			
		X1	Y1	Z1	X2	Y2	Z2	X3	Y3	Z3	X4	Y4	Z4	X5	Y5	Z5	X6	Y6	Z6	X7	Y7	Z7	X8	Y8	Z8	X9	Y9	Z9	X10	Y10	Z10	X11	Y11	Z11	X12	Y12	Z12	X13	Y13	Z13	X14	Y14	Z14	X15	Y15	Z15	X16	Y16	Z16	X17	Y17	Z17	X18	Y18	Z18	X19	Y19	Z19	X20	Y20	Z20	X21	Y21	Z21	X22	Y22	Z22	X23	Y23	Z23	X24	Y24	Z24	X25	Y25	Z25	X26	Y26	Z26	X27	Y27	Z27	X28	Y28	Z28	X29	Y29	Z29	X30	Y30	Z30	X31	Y31	Z31	X32	Y32	Z32	X33	Y33	Z33	X34	Y34	Z34	X35	Y35	Z35	X36	Y36	Z36	X37	Y37	Z37	X38	Y38	Z38	X39	Y39	Z39	X40	Y40	Z40	X41	Y41	Z41	X42	Y42	Z42	X43	Y43	Z43	X44	Y44	Z44	X45	Y45	Z45	X46	Y46	Z46	X47	Y47	Z47	X48	Y48	Z48	X49	Y49	Z49	X50	Y50	Z50	X51	Y51	Z51	

1	0	NaN	NaN	NaN	-1627.2	1294.1	453.2	-1658.1	1306.7	163.9	-1580.1	1581.2	305.42	NaN	NaN	NaN	NaN	NaN	NaN	-1787.2	937.33	342.33	-1779.5	940.29	268.07	-1688.1	783.9	511.43	-1648.8	793.58	115.35	-1705.5	940.6	476.12	-1662.3	931.9	136.12	-1813	896.41	293.84	-1743.4	590.39	486.76	NaN	NaN	NaN	-1787.5	514.27	464.28	-1671.5	574.94	467.27	-1797.2	433.32	445.14	-1816.7	429.03	303.71	NaN	NaN	NaN	-1918.2	174.37	404.72	NaN	NaN	NaN	-1895.8	235.26	424.82	-2007.6	115.95	403.78	-1998.3	129.26	316.74	-2074	108.21	352.08	-2066.9	71.605	326.01	-2075.7	77.664	388.67	-1913.7	45.806	425.22	-1887.8	37.991	317.92	-1834.4	61.331	369.9	-1571.5	572.72	137.56	-1466.3	541.06	147.46	-1529.3	494.72	161.44	-1517	618.45	124.08	-1445.2	463.16	158.74	-1447.3	457.33	297.94	-1451.5	274.94	157.32	-1349	225.9	165.46	-1420.9	207.32	171.41	-1387	291.09	153.05	-1341.5	110.98	174.9	-1331.6	111.97	257.73	-1386.1	54.887	213.09	-1365.2	38.376	247.54	-1363.1	27.991	187.44	-1211.6	89.063	156.49	-1200.7	115.86	261.42	-1153.8	155.29	214.25	-1720.3	1364.6	318.47	-1805.9	1115.5	327.3
2	0.0041667	NaN	NaN	NaN	-1622.2	1293.8	452.18	-1652.8	1306	162.82	-1575.1	1580.7	304.11	NaN	NaN	NaN	NaN	NaN	NaN	-1781.8	936.81	341.94	-1774.2	939.84	267.69	-1683.3	783.13	510.96	-1643.2	793.23	114.97	-1700.1	939.93	475.76	-1657	931.3	135.7	-1807.7	896.05	293.4	-1739	589.84	486.26	NaN	NaN	NaN	-1782.8	513.65	463.68	-1666.8	574.25	466.86	-1792.8	432.78	444.63	-1811.9	428.39	303.14	NaN	NaN	NaN	-1916	175.11	404.57	NaN	NaN	NaN	-1892.8	235.71	424.47	-2005.9	117.39	403.93	-1997.2	130.21	317.01	-2072.8	110.65	352.12	-2066.1	74.031	325.98	-2074.8	80.064	388.65	-1913.5	45.935	425.31	-1887.7	37.975	317.91	-1834.4	61.099	369.88	-1566.2	572.2	137.41	-1461.1	540.35	147.46	-1524.1	494.15	161.35	-1511.8	617.84	123.97	-1440.1	462.36	158.74	-1442.1	456.83	297.71	-1448.2	274.16	157.32	-1346.4	224.13	165.93	-1418.2	206.32	171.49	-1383.5	289.76	153.28	-1339.7	109.73	175.2	-1329.8	110.47	258.2	-1384.9	54.999	213.34	-1364.3	37.93	247.8	-1362.7	28.011	187.56	-1210.2	86.119	156.8	-1199	112.48	261.74	-1151.5	151.23	214.64	-1715.3	1364	317.29	-1800.6	1114.9	326.58
3	0.0083333	NaN	NaN	NaN	-1617	1293.5	451.13	-1647.4	1305.2	161.69	-1569.9	1580.2	302.74	NaN	NaN	NaN	NaN	NaN	NaN	-1776.2	936.29	341.53	-1768.6	939.38	267.29	-1678.3	782.34	510.47	-1637.3	792.88	114.58	-1694.5	939.26	475.39	-1651.4	930.7	135.25	-1802.2	895.69	292.93	-1734.4	589.27	485.74	NaN	NaN	NaN	-1777.8	513.01	463.07	-1661.9	573.54	466.43	-1788.2	432.23	444.1	-1806.8	427.74	302.56	NaN	NaN	NaN	-1913.8	175.89	404.45	NaN	NaN	NaN	-1889.8	236.2	424.13	-2004.3	118.93	404.08	-1996	131.25	317.32	-2071.5	113.25	352.17	-2065.1	76.619	325.94	-2073.8	82.618	388.63	-1913.2	46.079	425.41	-1887.6	37.963	317.91	-1834.3	60.864	369.84	-1560.8	571.67	137.24	-1455.8	539.62	147.45	-1518.8	493.57	161.26	-1506.3	617.22	123.86	-1435	461.55	158.73	-1436.7	456.31	297.48	-1444.6	273.39	157.33	-1343.5	222.33	166.41	-1415.4	205.33	171.58	-1379.8	288.43	153.54	-1337.7	108.49	175.53	-1328	108.96	258.7	-1383.6	55.146	213.61	-1363.4	37.513	248.07	-1362.2	28.073	187.69	-1208.7	83.09	157.13	-1197.2	108.98	262.08	-1149.1	147.02	215.08	-1710.1	1363.4	316.05	-1795	1114.2	325.81
4	0.0125	NaN	NaN	NaN	-1611.6	1293.2	450.04	-1641.7	1304.4	160.52	-1564.6	1579.7	301.33	NaN	NaN	NaN	NaN	NaN	NaN	-1770.4	935.79	341.09	-1762.8	938.94	266.87	-1673.1	781.55	509.95	-1631.2	792.54	114.16	-1688.6	938.61	475	-1645.6	930.13	134.76	-1796.5	895.33	292.44	-1729.6	588.71	485.21	-1704.7	493.45	445.36	-1772.6	512.36	462.44	-1656.8	572.84	465.99	-1783.3	431.66	443.57	-1801.5	427.07	301.98	NaN	NaN	NaN	-1911.6	176.71	404.37	NaN	NaN	NaN	-1886.5	236.74	423.8	-2002.5	120.59	404.23	-1994.7	132.38	317.66	-2070.1	116	352.23	-2064	79.368	325.91	-2072.7	85.325	388.61	-1912.9	46.241	425.52	-1887.5	37.957	317.92	-1834.2	60.628	369.81	-1555.2	571.16	137.07	-1450.3	538.87	147.45	-1513.4	492.98	161.18	-1500.6	616.59	123.74	-1429.6	460.73	158.72	-1431.3	455.75	297.24	-1440.9	272.63	157.36	-1340.6	220.55	166.9	-1412.5	204.34	171.69	-1376	287.09	153.82	-1335.7	107.25	175.87	-1326.1	107.44	259.22	-1382.2	55.337	213.89	-1362.4	37.137	248.35	-1361.7	28.188	187.82	-1207.1	80.007	157.49	-1195.4	105.38	262.44	-1146.5	142.68	215.56	-1704.6	1362.8	314.77	-1789.2	1113.5	325.01
5	0.016667	NaN	NaN	NaN	-1605.9	1292.9	448.92	-1635.8	1303.7	159.31	-1559.1	1579.2	299.87	NaN	NaN	NaN	NaN	NaN	NaN	-1764.4	935.3	340.64	-1756.8	938.52	266.43	-1667.7	780.76	509.4	-1625	792.21	113.72	-1682.5	937.99	474.58	-1639.7	929.58	134.23	-1790.7	894.98	291.92	-1724.6	588.15	484.68	-1700.2	492.75	445.04	-1767.2	511.7	461.8	-1651.4	572.13	465.54	-1778.2	431.09	443.05	-1796	426.38	301.4	NaN	NaN	NaN	-1909.2	177.56	404.35	NaN	NaN	NaN	-1883.1	237.32	423.49	-2000.7	122.35	404.39	-1993.2	133.62	318.02	-2068.5	118.89	352.29	-2062.8	82.275	325.88	-2071.6	88.183	388.58	-1912.5	46.422	425.64	-1887.5	37.959	317.94	-1834.1	60.394	369.76	-1549.5	570.67	136.89	-1444.7	538.11	147.44	-1507.9	492.41	161.09	-1494.8	615.96	123.62	-1424.2	459.91	158.7	-1425.8	455.18	297	-1437.1	271.91	157.39	-1337.4	218.79	167.4	-1409.5	203.39	171.83	-1372	285.78	154.13	-1333.6	106.04	176.22	-1324.1	105.94	259.76	-1380.7	55.574	214.18	-1361.5	36.81	248.62	-1361.2	28.359	187.96	-1205.6	76.898	157.86	-1193.5	101.73	262.83	-1144	138.25	216.08	-1699	1362.3	313.45	-1783.3	1112.9	324.17
6	0.020833	NaN	NaN	NaN	-1600.2	1292.6	447.79	-1629.8	1302.9	158.07	-1553.5	1578.8	298.38	NaN	NaN	NaN	NaN	NaN	NaN	-1758.2	934.84	340.17	-1750.7	938.12	265.96	-1662.1	779.99	508.84	-1618.5	791.89	113.26	-1676.3	937.42	474.15	-1633.5	929.07	133.66	-1784.6	894.64	291.4	-1719.5	587.61	484.15	-1695.4	492.06	444.7	-1761.6	511.05	461.16	-1645.9	571.44	465.09	-1773	430.51	442.52	-1790.3	425.69	300.83	NaN	NaN	NaN	-1906.8	178.45	404.38	NaN	NaN	NaN	-1879.6	237.95	423.19	-1998.8	124.23	404.56	-1991.5	134.95	318.42	-2066.8	121.93	352.36	-2061.6	85.342	325.85	-2070.3	91.192	388.56	-1912.2	46.626	425.77	-1887.4	37.973	317.96	-1834	60.162	369.71	-1543.7	570.21	136.7	-1439	537.35	147.43	-1502.3	491.86	160.99	-1488.9	615.35	123.5	-1418.7	459.11	158.68	-1420.3	454.59	296.76	-1433.1	271.22	157.44	-1334.2	217.07	167.9	-1406.3	202.48	171.98	-1367.9	284.51	154.45	-1331.4	104.87	176.59	-1322.1	104.48	260.31	-1379.2	55.859	214.48	-1360.5	36.542	248.89	-1360.6	28.589	188.1	-1204	73.793	158.26	-1191.6	98.038	263.25	-1141.4	133.76	216.64	-1693.3	1361.7	312.11	-1777.1	1112.2	323.31
7	0.025	NaN	NaN	NaN	-1594.3	1292.4	446.64	-1623.7	1302.2	156.81	-1547.7	1578.4	296.87	NaN	NaN	NaN	NaN	NaN	NaN	-1752	934.41	339.68	-1744.5	937.76	265.47	-1656.4	779.24	508.25	-1612	791.6	112.78	-1670	936.91	473.7	-1627.3	928.62	133.05	-1778.4	894.32	290.85	-1714.3	587.08	483.62	-1690.3	491.36	444.34	-1755.9	510.39	460.52	-1640.1	570.77	464.63	-1767.5	429.93	442.02	-1784.4	424.99	300.27	NaN	NaN	NaN	-1904.4	179.37	404.48	NaN	NaN	NaN	-1875.9	238.64	422.93	-1996.9	126.22	404.72	-1989.6	136.41	318.84	-2065	125.1	352.44	-2060.1	88.568	325.81	-2068.9	94.351	388.54	-1911.8	46.856	425.9	-1887.3	38.002	318	-1833.9	59.934	369.66	-1537.9	569.79	136.49	-1433.3	536.6	147.42	-1496.7	491.35	160.9	-1482.9	614.76	123.36	-1413.2	458.34	158.64	-1414.9	454	296.52	-1429	270.6	157.49	-1330.9	215.42	168.4	-1403.1	201.64	172.14	-1363.7	283.29	154.79	-1329.2	103.77	176.96	-1320.1	103.06	260.88	-1377.6	56.194	214.79	-1359.5	36.337	249.15	-1360	28.877	188.24	-1202.4	70.718	158.66	-1189.7	94.347	263.68	-1138.7	129.25	217.22	-1687.4	1361.2	310.75	-1770.9	1111.6	322.41
8	0.029167	NaN	NaN	NaN	-1588.3	1292.2	445.48	-1617.5	1301.5	155.53	-1542	1578	295.34	NaN	NaN	NaN	NaN	NaN	NaN	-1745.6	934.02	339.17	-1738.2	937.44	264.97	-1650.5	778.51	507.65	-1605.3	791.34	112.28	-1663.5	936.46	473.23	-1620.9	928.22	132.4	-1772.1	894.02	290.3	-1709	586.59	483.1	-1684.9	490.69	443.97	-1749.9	509.74	459.9	-1634.2	570.13	464.17	-1761.8	429.36	441.53	-1778.4	424.29	299.74	NaN	NaN	NaN	-1901.9	180.34	404.64	NaN	NaN	NaN	-1872.2	239.37	422.7	-1994.9	128.32	404.88	-1987.6	137.98	319.29	-2062.9	128.42	352.53	-2058.6	91.953	325.78	-2067.4	97.661	388.52	-1911.4	47.117	426.04	-1887.3	38.051	318.04	-1833.8	59.707	369.6	-1532	569.42	136.27	-1427.6	535.88	147.41	-1491.1	490.87	160.79	-1476.8	614.21	123.22	-1407.6	457.62	158.6	-1409.5	453.41	296.28	-1424.9	270.04	157.56	-1327.5	213.84	168.9	-1399.8	200.88	172.32	-1359.5	282.14	155.14	-1327	102.72	177.34	-1318	101.71	261.45	-1375.9	56.574	215.09	-1358.6	36.198	249.4	-1359.4	29.219	188.38	-1200.8	67.697	159.08	-1187.8	90.681	264.14	-1136.1	124.74	217.84	-1681.5	1360.8	309.37	-1764.5	1111.1	321.48
9	0.033333	NaN	NaN	NaN	-1582.3	1292	444.31	-1611.2	1300.8	154.24	-1536.1	1577.8	293.8	NaN	NaN	NaN	NaN	NaN	NaN	-1739.2	933.68	338.66	-1731.8	937.16	264.44	-1644.5	777.81	507.03	-1598.5	791.13	111.76	-1656.9	936.08	472.75	-1614.4	927.88	131.71	-1765.7	893.74	289.73	-1703.6	586.12	482.59	-1679.2	490.03	443.59	-1743.8	509.11	459.28	-1628.2	569.52	463.71	-1755.9	428.8	441.07	-1772.2	423.59	299.23	NaN	NaN	NaN	-1899.3	181.35	404.88	NaN	NaN	NaN	-1868.3	240.16	422.51	-1992.8	130.53	405.03	-1985.4	139.67	319.75	-2060.8	131.87	352.63	-2056.9	95.499	325.74	-2065.7	101.12	388.51	-1910.9	47.411	426.18	-1887.2	38.124	318.1	-1833.6	59.481	369.53	-1526	569.11	136.04	-1421.8	535.2	147.39	-1485.4	490.46	160.68	-1470.7	613.71	123.07	-1402.1	456.96	158.55	-1404.2	452.84	296.04	-1420.7	269.57	157.62	-1324	212.35	169.39	-1396.4	200.21	172.49	-1355.2	281.06	155.49	-1324.7	101.75	177.72	-1316	100.44	262.02	-1374.3	56.995	215.39	-1357.6	36.124	249.64	-1358.7	29.609	188.52	-1199.3	64.753	159.5	-1186	87.07	264.6	-1133.5	120.28	218.47	-1675.5	1360.4	307.98	-1758.1	1110.6	320.54
